<svg width="16" height="16" viewBox="0 0 16 16" fill="none" xmlns="http://www.w3.org/2000/svg">
<path d="M7.3 11.0333L11.0667 7.26665L10.1167 6.31665L7.3 9.13332L5.88333 7.71665L4.93333 8.66665L7.3 11.0333ZM8 14.6666C7.16667 14.6666 6.38622 14.5084 5.65867 14.192C4.93111 13.8755 4.29778 13.4478 3.75867 12.9087C3.21956 12.3695 2.79178 11.7362 2.47533 11.0086C2.15889 10.2811 2.00044 9.50043 2 8.66665C1.99956 7.83287 2.158 7.05243 2.47533 6.32532C2.79267 5.59821 3.22022 4.96487 3.758 4.42532C4.29578 3.88576 4.92911 3.45798 5.658 3.14198C6.38689 2.82598 7.16756 2.66754 8 2.66665C8.83244 2.66576 9.61311 2.82421 10.342 3.14198C11.0709 3.45976 11.7042 3.88754 12.242 4.42532C12.7798 4.96309 13.2076 5.59643 13.5253 6.32532C13.8431 7.05421 14.0013 7.83465 14 8.66665C13.9987 9.49865 13.8404 10.2793 13.5253 11.0086C13.2102 11.738 12.7824 12.3713 12.242 12.9087C11.7016 13.446 11.0682 13.8738 10.342 14.192C9.61578 14.5102 8.83511 14.6684 8 14.6666ZM3.73333 1.56665L4.66667 2.49998L1.83333 5.33332L0.9 4.39998L3.73333 1.56665ZM12.2667 1.56665L15.1 4.39998L14.1667 5.33332L11.3333 2.49998L12.2667 1.56665Z" fill="white"/>
</svg>
