<svg width="17" height="16" viewBox="0 0 17 16" fill="none" xmlns="http://www.w3.org/2000/svg">
<path d="M8.4999 14.6666C7.66657 14.6666 6.88612 14.5084 6.15857 14.192C5.43101 13.8755 4.79768 13.4478 4.25857 12.9087C3.71946 12.3695 3.29168 11.7362 2.97524 11.0086C2.65879 10.2811 2.50035 9.50043 2.4999 8.66665C2.49946 7.83287 2.6579 7.05243 2.97524 6.32532C3.29257 5.59821 3.72012 4.96487 4.2579 4.42532C4.79568 3.88576 5.42901 3.45798 6.1579 3.14198C6.88679 2.82598 7.66746 2.66754 8.4999 2.66665C9.33235 2.66576 10.113 2.82421 10.8419 3.14198C11.5708 3.45976 12.2041 3.88754 12.7419 4.42532C13.2797 4.96309 13.7075 5.59643 14.0252 6.32532C14.343 7.05421 14.5012 7.83465 14.4999 8.66665C14.4986 9.49865 14.3403 10.2793 14.0252 11.0086C13.7101 11.738 13.2823 12.3713 12.7419 12.9087C12.2015 13.446 11.5681 13.8738 10.8419 14.192C10.1157 14.5102 9.33501 14.6684 8.4999 14.6666ZM10.3666 11.4667L11.2999 10.5333L9.16657 8.39998V5.33332H7.83324V8.93332L10.3666 11.4667ZM4.23324 1.56665L5.16657 2.49998L2.33324 5.33332L1.3999 4.39998L4.23324 1.56665ZM12.7666 1.56665L15.5999 4.39998L14.6666 5.33332L11.8332 2.49998L12.7666 1.56665Z" fill="#3483FA"/>
</svg>
