<svg width="12" height="12" viewBox="0 0 12 12" fill="none" xmlns="http://www.w3.org/2000/svg">
<path d="M10.5 3.99991C10.7667 3.99991 11 4.09991 11.2 4.29991C11.4 4.49991 11.5 4.73325 11.5 4.99991V5.99991C11.5 6.05825 11.4937 6.12075 11.481 6.18741C11.4683 6.25408 11.4497 6.31658 11.425 6.37491L9.925 9.89991C9.85 10.0666 9.725 10.2082 9.55 10.3249C9.375 10.4416 9.19167 10.4999 9 10.4999H5C4.725 10.4999 4.48967 10.4021 4.294 10.2064C4.09833 10.0107 4.00033 9.77525 4 9.49991V4.41241C4 4.27908 4.02717 4.15208 4.0815 4.03141C4.13583 3.91075 4.20867 3.80441 4.3 3.71241L7.0125 1.01241C7.1375 0.895747 7.2855 0.824914 7.4565 0.799914C7.6275 0.774914 7.792 0.80408 7.95 0.887414C8.108 0.970747 8.22267 1.08741 8.294 1.23741C8.36533 1.38741 8.37983 1.54158 8.3375 1.69991L7.775 3.99991H10.5ZM2 10.4999C1.725 10.4999 1.48967 10.4021 1.294 10.2064C1.09833 10.0107 1.00033 9.77525 1 9.49991V4.99991C1 4.72491 1.098 4.48958 1.294 4.29391C1.49 4.09825 1.72533 4.00025 2 3.99991C2.27467 3.99958 2.51017 4.09758 2.7065 4.29391C2.90283 4.49025 3.00067 4.72558 3 4.99991V9.49991C3 9.77491 2.90217 10.0104 2.7065 10.2064C2.51083 10.4024 2.27533 10.5002 2 10.4999Z" fill="white"/>
</svg>
