<svg width="24" height="24" viewBox="0 0 24 24" fill="none" xmlns="http://www.w3.org/2000/svg">
<path d="M17.825 9L15 6.175L16.4 4.75L17.825 6.175L21.35 2.625L22.775 4.05L17.825 9ZM5 21V5C5 4.45 5.196 3.97933 5.588 3.588C5.98 3.19667 6.45067 3.00067 7 3H14C13.6667 3.5 13.4167 3.97933 13.25 4.438C13.0833 4.89667 13 5.41733 13 6C13 7.2 13.3793 8.25833 14.138 9.175C14.8967 10.0917 15.8507 10.6667 17 10.9C17.3833 10.95 17.7167 10.975 18 10.975C18.2833 10.975 18.6167 10.95 19 10.9V21L12 18L5 21Z" fill="#5D9CFB"/>
</svg>
