<svg width="28" height="28" viewBox="0 0 28 28" fill="none" xmlns="http://www.w3.org/2000/svg">
<path d="M9.12915 15.1668L14.8458 20.8834C15.0791 21.1168 15.1911 21.389 15.1818 21.7001C15.1725 22.0112 15.0508 22.2834 14.8166 22.5168C14.5833 22.7307 14.3111 22.8427 14 22.8528C13.6889 22.8629 13.4166 22.7509 13.1833 22.5168L5.48331 14.8168C5.36665 14.7001 5.28381 14.5737 5.23481 14.4376C5.18581 14.3015 5.16209 14.1557 5.16365 14.0001C5.1652 13.8445 5.1897 13.6987 5.23715 13.5626C5.28459 13.4265 5.36704 13.3001 5.48448 13.1834L13.1845 5.48343C13.3984 5.26954 13.6659 5.1626 13.9871 5.1626C14.3084 5.1626 14.5853 5.26954 14.8178 5.48343C15.0511 5.71676 15.1678 5.99404 15.1678 6.31526C15.1678 6.63649 15.0511 6.91338 14.8178 7.14593L9.12915 12.8334H22.1666C22.4972 12.8334 22.7745 12.9454 22.9985 13.1694C23.2225 13.3934 23.3341 13.6703 23.3333 14.0001C23.3325 14.3299 23.2205 14.6072 22.9973 14.8319C22.7741 15.0567 22.4972 15.1683 22.1666 15.1668H9.12915Z" fill="#94A2B3"/>
</svg>
