<svg width="21" height="20" viewBox="0 0 21 20" fill="none" xmlns="http://www.w3.org/2000/svg">
<path d="M5.75033 17.5001C5.12533 17.5001 4.50727 17.3473 3.89616 17.0417C3.28505 16.7362 2.79199 16.3334 2.41699 15.8334C2.7781 15.8334 3.14616 15.6909 3.52116 15.4059C3.89616 15.1209 4.08366 14.7079 4.08366 14.1667C4.08366 13.4723 4.32671 12.882 4.81283 12.3959C5.29894 11.9098 5.88921 11.6667 6.58366 11.6667C7.2781 11.6667 7.86838 11.9098 8.35449 12.3959C8.8406 12.882 9.08366 13.4723 9.08366 14.1667C9.08366 15.0834 8.75727 15.8681 8.10449 16.5209C7.45171 17.1737 6.66699 17.5001 5.75033 17.5001ZM10.542 12.5001L8.25033 10.2084L16.292 2.16675L18.5837 4.45841L10.542 12.5001Z" fill="#C8D3DF"/>
</svg>
