<svg width="21" height="20" viewBox="0 0 21 20" fill="none" xmlns="http://www.w3.org/2000/svg">
<path d="M5.74935 17.5001C5.12435 17.5001 4.50629 17.3473 3.89518 17.0417C3.28407 16.7362 2.79102 16.3334 2.41602 15.8334C2.77713 15.8334 3.14518 15.6909 3.52018 15.4059C3.89518 15.1209 4.08268 14.7079 4.08268 14.1667C4.08268 13.4723 4.32574 12.882 4.81185 12.3959C5.29796 11.9098 5.88824 11.6667 6.58268 11.6667C7.27713 11.6667 7.8674 11.9098 8.35352 12.3959C8.83963 12.882 9.08268 13.4723 9.08268 14.1667C9.08268 15.0834 8.75629 15.8681 8.10352 16.5209C7.45074 17.1737 6.66602 17.5001 5.74935 17.5001ZM10.541 12.5001L8.24935 10.2084L16.291 2.16675L18.5827 4.45841L10.541 12.5001Z" fill="#3483FA"/>
</svg>
