<svg width="20" height="20" viewBox="0 0 20 20" fill="none" xmlns="http://www.w3.org/2000/svg">
<path d="M7.5 15.0003C7.04167 15.0003 6.64944 14.8373 6.32333 14.5112C5.99722 14.185 5.83389 13.7925 5.83333 13.3337V3.33366C5.83333 2.87533 5.99667 2.4831 6.32333 2.15699C6.65 1.83088 7.04222 1.66755 7.5 1.66699H15C15.4583 1.66699 15.8508 1.83033 16.1775 2.15699C16.5042 2.48366 16.6672 2.87588 16.6667 3.33366V13.3337C16.6667 13.792 16.5036 14.1845 16.1775 14.5112C15.8514 14.8378 15.4589 15.0009 15 15.0003H7.5ZM7.5 13.3337H15V3.33366H7.5V13.3337ZM4.16667 18.3337C3.70833 18.3337 3.31611 18.1706 2.99 17.8445C2.66389 17.5184 2.50056 17.1259 2.5 16.667V5.83366C2.5 5.59755 2.58 5.39977 2.74 5.24033C2.9 5.08088 3.09778 5.00088 3.33333 5.00033C3.56889 4.99977 3.76694 5.07977 3.9275 5.24033C4.08806 5.40088 4.16778 5.59866 4.16667 5.83366V16.667H12.5C12.7361 16.667 12.9342 16.747 13.0942 16.907C13.2542 17.067 13.3339 17.2648 13.3333 17.5003C13.3328 17.7359 13.2528 17.9339 13.0933 18.0945C12.9339 18.255 12.7361 18.3348 12.5 18.3337H4.16667Z" fill="#94A2B3"/>
</svg>
