<svg width="27" height="26" viewBox="0 0 27 26" fill="none" xmlns="http://www.w3.org/2000/svg">
<path d="M19.2945 5.25417H5.93337C4.82649 5.25417 3.9292 6.15146 3.9292 7.25833V19.2833C3.9292 20.3902 4.82649 21.2875 5.93337 21.2875H19.2945C20.4013 21.2875 21.2986 20.3902 21.2986 19.2833V7.25833C21.2986 6.15146 20.4013 5.25417 19.2945 5.25417Z" fill="#A0EADC"/>
<path d="M3.9292 7.25833C3.9292 6.15146 4.82649 5.25417 5.93337 5.25417H19.2945C20.4013 5.25417 21.2986 6.15146 21.2986 7.25833V9.2625H3.9292V7.25833Z" fill="#3DC3A9"/>
<path d="M8.60559 3.91806C8.60559 3.5491 8.30649 3.25 7.93753 3.25C7.56858 3.25 7.26948 3.5491 7.26948 3.91806V6.59028C7.26948 6.95923 7.56858 7.25833 7.93753 7.25833C8.30649 7.25833 8.60559 6.95923 8.60559 6.59028V3.91806Z" fill="#A0EADC"/>
<path d="M8.60559 11.2667H7.26948C6.90052 11.2667 6.60142 11.5658 6.60142 11.9347V13.2708C6.60142 13.6398 6.90052 13.9389 7.26948 13.9389H8.60559C8.97455 13.9389 9.27364 13.6398 9.27364 13.2708V11.9347C9.27364 11.5658 8.97455 11.2667 8.60559 11.2667Z" fill="#DAF7F1"/>
<path d="M8.60559 15.9431H7.26948C6.90052 15.9431 6.60142 16.2422 6.60142 16.6111V17.9472C6.60142 18.3162 6.90052 18.6153 7.26948 18.6153H8.60559C8.97455 18.6153 9.27364 18.3162 9.27364 17.9472V16.6111C9.27364 16.2422 8.97455 15.9431 8.60559 15.9431Z" fill="#DAF7F1"/>
<path d="M13.282 11.2667H11.9459C11.5769 11.2667 11.2778 11.5658 11.2778 11.9347V13.2708C11.2778 13.6398 11.5769 13.9389 11.9459 13.9389H13.282C13.6509 13.9389 13.95 13.6398 13.95 13.2708V11.9347C13.95 11.5658 13.6509 11.2667 13.282 11.2667Z" fill="#DAF7F1"/>
<path d="M13.282 15.9431H11.9459C11.5769 15.9431 11.2778 16.2422 11.2778 16.6111V17.9472C11.2778 18.3162 11.5769 18.6153 11.9459 18.6153H13.282C13.6509 18.6153 13.95 18.3162 13.95 17.9472V16.6111C13.95 16.2422 13.6509 15.9431 13.282 15.9431Z" fill="#DAF7F1"/>
<path d="M17.9584 11.2667H16.6223C16.2533 11.2667 15.9542 11.5658 15.9542 11.9347V13.2708C15.9542 13.6398 16.2533 13.9389 16.6223 13.9389H17.9584C18.3273 13.9389 18.6264 13.6398 18.6264 13.2708V12.6028V11.9347C18.6264 11.5658 18.3273 11.2667 17.9584 11.2667Z" fill="#DAF7F1"/>
<path d="M17.9584 15.9431H16.6223C16.2533 15.9431 15.9542 16.2422 15.9542 16.6111V17.9472C15.9542 18.3162 16.2533 18.6153 16.6223 18.6153H17.9584C18.3273 18.6153 18.6264 18.3162 18.6264 17.9472V16.6111C18.6264 16.2422 18.3273 15.9431 17.9584 15.9431Z" fill="#DAF7F1"/>
<path d="M17.2903 3.91806C17.2903 3.5491 16.9912 3.25 16.6223 3.25C16.2533 3.25 15.9542 3.5491 15.9542 3.91806V6.59028C15.9542 6.95923 16.2533 7.25833 16.6223 7.25833C16.9912 7.25833 17.2903 6.95923 17.2903 6.59028V3.91806Z" fill="#A0EADC"/>
<path d="M18.6264 23.2917C21.5781 23.2917 23.9709 20.8989 23.9709 17.9472C23.9709 14.9956 21.5781 12.6028 18.6264 12.6028C15.6748 12.6028 13.282 14.9956 13.282 17.9472C13.282 20.8989 15.6748 23.2917 18.6264 23.2917Z" fill="#3DC3A9"/>
<path d="M17.9584 14.941C17.9584 14.7565 18.1079 14.6069 18.2924 14.6069C18.4768 14.6069 18.6264 14.7565 18.6264 14.941V17.7795L21.1649 19.6839L21.2151 19.7302C21.3179 19.8464 21.3287 20.0227 21.2321 20.1517C21.1353 20.2807 20.9628 20.3198 20.8224 20.2534L20.7643 20.2189L18.0921 18.2147C18.008 18.1516 17.9584 18.0524 17.9584 17.9472V14.941Z" fill="#A0EADC"/>
</svg>
