<svg width="16" height="16" viewBox="0 0 16 16" fill="none" xmlns="http://www.w3.org/2000/svg">
<path d="M7.4752 10.475L3.8502 6.85C3.8002 6.8 3.76286 6.746 3.7382 6.688C3.71353 6.63 3.70086 6.56733 3.7002 6.5C3.7002 6.36667 3.7462 6.25 3.8382 6.15C3.9302 6.05 4.05086 6 4.2002 6H11.8002C11.9502 6 12.0712 6.05 12.1632 6.15C12.2552 6.25 12.3009 6.36667 12.3002 6.5C12.3002 6.53333 12.2502 6.65 12.1502 6.85L8.5252 10.475C8.44186 10.5583 8.35853 10.6167 8.2752 10.65C8.19186 10.6833 8.1002 10.7 8.0002 10.7C7.9002 10.7 7.80853 10.6833 7.7252 10.65C7.64186 10.6167 7.55853 10.5583 7.4752 10.475Z" fill="#344251"/>
</svg>
