<svg width="25" height="24" viewBox="0 0 25 24" fill="none" xmlns="http://www.w3.org/2000/svg">
<path d="M18.75 13C19.0333 13 19.271 12.904 19.463 12.712C19.655 12.52 19.7507 12.2827 19.75 12C19.7493 11.7173 19.6533 11.48 19.462 11.288C19.2707 11.096 19.0333 11 18.75 11H15.75C15.4667 11 15.2293 11.096 15.038 11.288C14.8467 11.48 14.7507 11.7173 14.75 12C14.7493 12.2827 14.8453 12.5203 15.038 12.713C15.2307 12.9057 15.468 13.0013 15.75 13H18.75ZM18.75 10C19.0333 10 19.271 9.904 19.463 9.712C19.655 9.52 19.7507 9.28267 19.75 9C19.7493 8.71733 19.6533 8.48 19.462 8.288C19.2707 8.096 19.0333 8 18.75 8H15.75C15.4667 8 15.2293 8.096 15.038 8.288C14.8467 8.48 14.7507 8.71733 14.75 9C14.7493 9.28267 14.8453 9.52033 15.038 9.713C15.2307 9.90567 15.468 10.0013 15.75 10H18.75ZM9.75 13C9.15 13 8.60833 13.0543 8.125 13.163C7.64167 13.2717 7.21667 13.4423 6.85 13.675C6.5 13.8917 6.23333 14.1377 6.05 14.413C5.86667 14.6883 5.775 14.984 5.775 15.3C5.775 15.5 5.85 15.6667 6 15.8C6.15 15.9333 6.33333 16 6.55 16H12.95C13.1667 16 13.35 15.929 13.5 15.787C13.65 15.645 13.725 15.466 13.725 15.25C13.725 14.9667 13.6333 14.6917 13.45 14.425C13.2667 14.1583 13 13.9083 12.65 13.675C12.2833 13.4417 11.8583 13.2707 11.375 13.162C10.8917 13.0533 10.35 12.9993 9.75 13ZM9.75 12C10.3 12 10.7707 11.8043 11.162 11.413C11.5533 11.0217 11.7493 10.5507 11.75 10C11.7507 9.44933 11.555 8.97867 11.163 8.588C10.771 8.19733 10.3 8.00133 9.75 8C9.2 7.99867 8.72933 8.19467 8.338 8.588C7.94667 8.98133 7.75067 9.452 7.75 10C7.74933 10.548 7.94533 11.019 8.338 11.413C8.73067 11.807 9.20133 12.0027 9.75 12ZM4.75 20C4.2 20 3.72933 19.8043 3.338 19.413C2.94667 19.0217 2.75067 18.5507 2.75 18V6C2.75 5.45 2.946 4.97933 3.338 4.588C3.73 4.19667 4.20067 4.00067 4.75 4H20.75C21.3 4 21.771 4.196 22.163 4.588C22.555 4.98 22.7507 5.45067 22.75 6V18C22.75 18.55 22.5543 19.021 22.163 19.413C21.7717 19.805 21.3007 20.0007 20.75 20H4.75Z" fill="#3483FA"/>
</svg>
