<svg width="21" height="20" viewBox="0 0 21 20" fill="none" xmlns="http://www.w3.org/2000/svg">
<path d="M15.7494 10.8333C15.9855 10.8333 16.1835 10.7533 16.3435 10.5933C16.5035 10.4333 16.5832 10.2355 16.5827 9.99992C16.5821 9.76436 16.5021 9.56659 16.3427 9.40659C16.1832 9.24659 15.9855 9.16658 15.7494 9.16658H13.2494C13.0132 9.16658 12.8155 9.24659 12.656 9.40659C12.4966 9.56659 12.4166 9.76436 12.416 9.99992C12.4155 10.2355 12.4955 10.4335 12.656 10.5941C12.8166 10.7546 13.0143 10.8344 13.2494 10.8333H15.7494ZM15.7494 8.33325C15.9855 8.33325 16.1835 8.25325 16.3435 8.09325C16.5035 7.93325 16.5832 7.73547 16.5827 7.49992C16.5821 7.26436 16.5021 7.06659 16.3427 6.90659C16.1832 6.74659 15.9855 6.66659 15.7494 6.66659H13.2494C13.0132 6.66659 12.8155 6.74659 12.656 6.90659C12.4966 7.06659 12.4166 7.26436 12.416 7.49992C12.4155 7.73547 12.4955 7.93353 12.656 8.09409C12.8166 8.25464 13.0143 8.33436 13.2494 8.33325H15.7494ZM8.24935 10.8333C7.74935 10.8333 7.29796 10.8785 6.89518 10.9691C6.4924 11.0596 6.13824 11.2019 5.83268 11.3958C5.54102 11.5763 5.31879 11.7813 5.16602 12.0108C5.01324 12.2402 4.93685 12.4866 4.93685 12.7499C4.93685 12.9166 4.99935 13.0555 5.12435 13.1666C5.24935 13.2777 5.40213 13.3333 5.58268 13.3333H10.916C11.0966 13.3333 11.2493 13.2741 11.3743 13.1558C11.4993 13.0374 11.5619 12.8883 11.5619 12.7083C11.5619 12.4721 11.4855 12.243 11.3327 12.0208C11.1799 11.7985 10.9577 11.5902 10.666 11.3958C10.3605 11.2013 10.0063 11.0588 9.60352 10.9683C9.20074 10.8777 8.74935 10.8327 8.24935 10.8333ZM8.24935 9.99992C8.70768 9.99992 9.09991 9.83686 9.42602 9.51075C9.75213 9.18464 9.91546 8.79214 9.91602 8.33325C9.91657 7.87436 9.75352 7.48214 9.42685 7.15659C9.10018 6.83103 8.70768 6.6677 8.24935 6.66659C7.79102 6.66547 7.39879 6.82881 7.07268 7.15659C6.74657 7.48436 6.58324 7.87659 6.58268 8.33325C6.58213 8.78992 6.74546 9.18242 7.07268 9.51075C7.3999 9.83909 7.79213 10.0021 8.24935 9.99992ZM4.08268 16.6666C3.62435 16.6666 3.23213 16.5035 2.90602 16.1774C2.5799 15.8513 2.41657 15.4588 2.41602 14.9999V4.99992C2.41602 4.54159 2.57935 4.14936 2.90602 3.82325C3.23268 3.49714 3.6249 3.33381 4.08268 3.33325H17.416C17.8744 3.33325 18.2669 3.49659 18.5935 3.82325C18.9202 4.14992 19.0832 4.54214 19.0827 4.99992V14.9999C19.0827 15.4583 18.9196 15.8508 18.5935 16.1774C18.2674 16.5041 17.8749 16.6671 17.416 16.6666H4.08268Z" fill="#C8D3DF"/>
</svg>
