<svg width="25" height="24" viewBox="0 0 25 24" fill="none" xmlns="http://www.w3.org/2000/svg">
<path d="M6.125 22C5.575 22 5.10433 21.8043 4.713 21.413C4.32167 21.0217 4.12567 20.5507 4.125 20V10C4.125 9.45 4.321 8.97933 4.713 8.588C5.105 8.19667 5.57567 8.00067 6.125 8H7.125V6C7.125 4.61667 7.61267 3.43767 8.588 2.463C9.56333 1.48833 10.7423 1.00067 12.125 1C13.5077 0.999334 14.687 1.487 15.663 2.463C16.639 3.439 17.1263 4.618 17.125 6V8H18.125C18.675 8 19.146 8.196 19.538 8.588C19.93 8.98 20.1257 9.45067 20.125 10V20C20.125 20.55 19.9293 21.021 19.538 21.413C19.1467 21.805 18.6757 22.0007 18.125 22H6.125ZM12.125 17C12.675 17 13.146 16.8043 13.538 16.413C13.93 16.0217 14.1257 15.5507 14.125 15C14.1243 14.4493 13.9287 13.9787 13.538 13.588C13.1473 13.1973 12.6763 13.0013 12.125 13C11.5737 12.9987 11.103 13.1947 10.713 13.588C10.323 13.9813 10.127 14.452 10.125 15C10.123 15.548 10.319 16.019 10.713 16.413C11.107 16.807 11.5777 17.0027 12.125 17ZM9.125 8H15.125V6C15.125 5.16667 14.8333 4.45833 14.25 3.875C13.6667 3.29167 12.9583 3 12.125 3C11.2917 3 10.5833 3.29167 10 3.875C9.41667 4.45833 9.125 5.16667 9.125 6V8Z" fill="#EABC00"/>
</svg>
