<svg width="24" height="24" viewBox="0 0 24 24" fill="none" xmlns="http://www.w3.org/2000/svg">
<path d="M12 22C10.6333 22 9.34167 21.7373 8.125 21.212C6.90833 20.6867 5.846 19.97 4.938 19.062C4.03 18.154 3.31333 17.0917 2.788 15.875C2.26267 14.6583 2 13.3667 2 12C2 10.6167 2.26267 9.321 2.788 8.113C3.31333 6.905 4.03 5.84667 4.938 4.938C5.846 4.02933 6.90833 3.31267 8.125 2.788C9.34167 2.26333 10.6333 2.00067 12 2C12.2833 2 12.521 2.096 12.713 2.288C12.905 2.48 13.0007 2.71733 13 3C12.9993 3.28267 12.9033 3.52033 12.712 3.713C12.5207 3.90567 12.2833 4.00133 12 4C9.78333 4 7.89567 4.77933 6.337 6.338C4.77833 7.89667 3.99933 9.784 4 12C4.00067 14.216 4.78 16.1037 6.338 17.663C7.896 19.2223 9.78333 20.0013 12 20C14.2167 19.9987 16.1043 19.2197 17.663 17.663C19.2217 16.1063 20.0007 14.2187 20 12C20 11.7167 20.096 11.4793 20.288 11.288C20.48 11.0967 20.7173 11.0007 21 11C21.2827 10.9993 21.5203 11.0953 21.713 11.288C21.9057 11.4807 22.0013 11.718 22 12C22 13.3667 21.7373 14.6583 21.212 15.875C20.6867 17.0917 19.97 18.1543 19.062 19.063C18.154 19.9717 17.0957 20.6883 15.887 21.213C14.6783 21.7377 13.3827 22 12 22Z" fill="white"/>
</svg>
