<svg width="27" height="26" viewBox="0 0 27 26" fill="none" xmlns="http://www.w3.org/2000/svg">
<path d="M3.5 5.63332C3.5 4.6162 4.34842 3.79166 5.395 3.79166H14.0851C14.5876 3.79166 15.0697 3.98569 15.425 4.33107L18.7366 7.54947C19.092 7.89485 19.2917 8.36328 19.2917 8.85172V20.3667C19.2917 21.3838 18.4433 22.2083 17.3967 22.2083H5.395C4.34842 22.2083 3.5 21.3838 3.5 20.3667V5.63332Z" fill="#FFE57E"/>
<path d="M12.3433 6.8611H6.65833C6.30947 6.8611 6.02666 7.13595 6.02666 7.47499C6.02666 7.81403 6.30947 8.08888 6.65833 8.08888H12.3433C12.6922 8.08888 12.975 7.81403 12.975 7.47499C12.975 7.13595 12.6922 6.8611 12.3433 6.8611Z" fill="#FFD00E"/>
<path d="M10.4483 9.31666H6.65833C6.30947 9.31666 6.02666 9.5915 6.02666 9.93055C6.02666 10.2696 6.30947 10.5444 6.65833 10.5444H10.4483C10.7972 10.5444 11.08 10.2696 11.08 9.93055C11.08 9.5915 10.7972 9.31666 10.4483 9.31666Z" fill="#FFD00E"/>
<path d="M13.1478 14.3701L14.499 11.3685C14.6773 10.9724 15.2098 10.8747 15.5244 11.1804L17.3739 12.9779C17.6885 13.2836 17.588 13.8011 17.1804 13.9744L14.0919 15.2876C13.8536 15.3889 13.5759 15.338 13.392 15.1593L13.2798 15.0503C13.096 14.8716 13.0436 14.6016 13.1478 14.3701Z" fill="#EABC00"/>
<path d="M20.74 4.83963L14.3691 11.0312C14.1225 11.2709 14.1225 11.6596 14.3691 11.8993L16.6342 14.1006C16.8808 14.3404 17.2808 14.3404 17.5275 14.1006L23.8983 7.90908C24.145 7.66933 24.145 7.28064 23.8983 7.0409L21.6333 4.83963C21.3866 4.59989 20.9867 4.59989 20.74 4.83963Z" fill="#FFD00E"/>
<path d="M12.0495 15.17C12.2962 15.4097 12.2962 15.7984 12.0495 16.0382L9.37916 18.6333C9.37618 18.6363 9.3735 18.6397 9.37044 18.6427C9.30083 18.7103 9.21855 18.7582 9.13141 18.7877C9.01801 18.8261 8.89612 18.8317 8.77984 18.8055C8.75808 18.8005 8.73652 18.7949 8.71529 18.7877C8.62815 18.7582 8.54588 18.7103 8.47626 18.6427C8.4732 18.6397 8.47052 18.6363 8.46754 18.6333L6.69051 16.9064C6.44383 16.6666 6.44383 16.2779 6.69051 16.0382C6.93721 15.7986 7.33719 15.7985 7.58382 16.0382L8.92335 17.34L11.1562 15.17C11.4028 14.9303 11.8028 14.9304 12.0495 15.17Z" fill="#EABC00"/>
</svg>
