<svg width="32" height="32" viewBox="0 0 32 32" fill="none" xmlns="http://www.w3.org/2000/svg">
<path d="M7.99992 18.6667C7.26659 18.6667 6.63903 18.4058 6.11725 17.884C5.59548 17.3622 5.33414 16.7342 5.33325 16C5.33237 15.2658 5.5937 14.6382 6.11725 14.1173C6.64081 13.5964 7.26837 13.3351 7.99992 13.3333C8.73148 13.3315 9.35948 13.5929 9.88392 14.1173C10.4084 14.6418 10.6693 15.2693 10.6666 16C10.6639 16.7307 10.403 17.3587 9.88392 17.884C9.36481 18.4093 8.73681 18.6702 7.99992 18.6667ZM15.9999 18.6667C15.2666 18.6667 14.639 18.4058 14.1173 17.884C13.5955 17.3622 13.3341 16.7342 13.3333 16C13.3324 15.2658 13.5937 14.6382 14.1173 14.1173C14.6408 13.5964 15.2684 13.3351 15.9999 13.3333C16.7315 13.3315 17.3595 13.5929 17.8839 14.1173C18.4084 14.6418 18.6693 15.2693 18.6666 16C18.6639 16.7307 18.403 17.3587 17.8839 17.884C17.3648 18.4093 16.7368 18.6702 15.9999 18.6667ZM23.9999 18.6667C23.2666 18.6667 22.639 18.4058 22.1173 17.884C21.5955 17.3622 21.3341 16.7342 21.3333 16C21.3324 15.2658 21.5937 14.6382 22.1173 14.1173C22.6408 13.5964 23.2684 13.3351 23.9999 13.3333C24.7315 13.3315 25.3595 13.5929 25.8839 14.1173C26.4084 14.6418 26.6693 15.2693 26.6666 16C26.6639 16.7307 26.403 17.3587 25.8839 17.884C25.3648 18.4093 24.7368 18.6702 23.9999 18.6667Z" fill="#94A2B3"/>
</svg>
