<svg width="21" height="20" viewBox="0 0 21 20" fill="none" xmlns="http://www.w3.org/2000/svg">
<path d="M9.41675 10.8333H5.25008C5.01397 10.8333 4.8162 10.7533 4.65675 10.5933C4.49731 10.4333 4.41731 10.2355 4.41675 9.99999C4.4162 9.76444 4.4962 9.56666 4.65675 9.40666C4.81731 9.24666 5.01508 9.16666 5.25008 9.16666H9.41675V4.99999C9.41675 4.76388 9.49675 4.5661 9.65675 4.40666C9.81675 4.24722 10.0145 4.16721 10.2501 4.16666C10.4856 4.1661 10.6837 4.2461 10.8443 4.40666C11.0048 4.56721 11.0845 4.76499 11.0834 4.99999V9.16666H15.2501C15.4862 9.16666 15.6843 9.24666 15.8443 9.40666C16.0043 9.56666 16.084 9.76444 16.0834 9.99999C16.0829 10.2355 16.0029 10.4336 15.8434 10.5942C15.684 10.7547 15.4862 10.8344 15.2501 10.8333H11.0834V15C11.0834 15.2361 11.0034 15.4342 10.8434 15.5942C10.6834 15.7542 10.4856 15.8339 10.2501 15.8333C10.0145 15.8328 9.81675 15.7528 9.65675 15.5933C9.49675 15.4339 9.41675 15.2361 9.41675 15V10.8333Z" fill="#EABC00"/>
</svg>
