<svg width="20" height="20" viewBox="0 0 20 20" fill="none" xmlns="http://www.w3.org/2000/svg">
<path d="M9.16602 10.8332H4.99935C4.76324 10.8332 4.56546 10.7532 4.40602 10.5932C4.24657 10.4332 4.16657 10.2354 4.16602 9.99984C4.16546 9.76428 4.24546 9.56651 4.40602 9.40651C4.56657 9.24651 4.76435 9.16651 4.99935 9.16651H9.16602V4.99984C9.16602 4.76373 9.24602 4.56595 9.40602 4.40651C9.56602 4.24706 9.7638 4.16706 9.99935 4.16651C10.2349 4.16595 10.433 4.24595 10.5935 4.40651C10.7541 4.56706 10.8338 4.76484 10.8327 4.99984V9.16651H14.9994C15.2355 9.16651 15.4335 9.24651 15.5935 9.40651C15.7535 9.56651 15.8332 9.76428 15.8327 9.99984C15.8321 10.2354 15.7521 10.4335 15.5927 10.594C15.4332 10.7546 15.2355 10.8343 14.9994 10.8332H10.8327V14.9998C10.8327 15.236 10.7527 15.434 10.5927 15.594C10.4327 15.754 10.2349 15.8337 9.99935 15.8332C9.7638 15.8326 9.56602 15.7526 9.40602 15.5932C9.24602 15.4337 9.16602 15.236 9.16602 14.9998V10.8332Z" fill="#94A2B3"/>
</svg>
