<svg width="20" height="20" viewBox="0 0 20 20" fill="none" xmlns="http://www.w3.org/2000/svg">
<circle cx="10" cy="10" r="10" fill="#5D9CFB"/>
<path d="M16.5183 6.6483L15.2257 5.37099C14.7416 4.89268 13.962 4.89811 13.4834 5.38186L11.7738 7.1103C11.5345 7.35127 11.1447 7.35489 10.9036 7.11574L9.17404 5.40722C8.68998 4.92891 7.91041 4.93435 7.43179 5.41809L3.24036 9.63607C2.76174 10.1198 2.76718 10.8989 3.25123 11.3772L7.58781 15.6603C8.07187 16.1386 8.85143 16.1331 9.33005 15.6494L12.2434 12.7196L16.5292 8.3858C17.0078 7.90205 17.0024 7.12299 16.5183 6.64467V6.6483Z" fill="#AECDFD"/>
<path d="M13.5212 9.63337L12.2386 8.36774C11.7584 7.8938 10.9849 7.89919 10.51 8.37851L8.81377 10.0911C8.57633 10.3299 8.1896 10.3335 7.95036 10.0965L6.23433 8.40364C5.75406 7.9297 4.98059 7.93509 4.50571 8.41441L3.23758 9.69441C2.7627 10.1737 2.7681 10.9457 3.24837 11.4196L7.55103 15.6635C8.03131 16.1375 8.80478 16.1321 9.27966 15.6527L13.532 11.3586C14.0068 10.8793 14.0014 10.1073 13.5212 9.63337Z" fill="#EAF2FE" stroke="#5D9CFB"/>
</svg>
