<svg width="20" height="20" viewBox="0 0 20 20" fill="none" xmlns="http://www.w3.org/2000/svg">
<path d="M9.16666 10.8334H4.99999C4.76388 10.8334 4.5661 10.7534 4.40666 10.5934C4.24722 10.4334 4.16721 10.2356 4.16666 10.0001C4.1661 9.76453 4.2461 9.56675 4.40666 9.40675C4.56721 9.24675 4.76499 9.16675 4.99999 9.16675H9.16666V5.00008C9.16666 4.76397 9.24666 4.5662 9.40666 4.40675C9.56666 4.24731 9.76444 4.16731 9.99999 4.16675C10.2355 4.1662 10.4336 4.2462 10.5942 4.40675C10.7547 4.56731 10.8344 4.76508 10.8333 5.00008V9.16675H15C15.2361 9.16675 15.4342 9.24675 15.5942 9.40675C15.7542 9.56675 15.8339 9.76453 15.8333 10.0001C15.8328 10.2356 15.7528 10.4337 15.5933 10.5943C15.4339 10.7548 15.2361 10.8345 15 10.8334H10.8333V15.0001C10.8333 15.2362 10.7533 15.4343 10.5933 15.5943C10.4333 15.7543 10.2355 15.834 9.99999 15.8334C9.76444 15.8329 9.56666 15.7529 9.40666 15.5934C9.24666 15.434 9.16666 15.2362 9.16666 15.0001V10.8334Z" fill="#3DC3A9"/>
</svg>
