<svg width="20" height="20" viewBox="0 0 20 20" fill="none" xmlns="http://www.w3.org/2000/svg">
<path d="M9.16667 10.8333V13.3333C9.16667 13.5694 9.24667 13.7675 9.40667 13.9275C9.56667 14.0875 9.76444 14.1672 10 14.1667C10.2356 14.1661 10.4336 14.0861 10.5942 13.9267C10.7547 13.7672 10.8344 13.5694 10.8333 13.3333V10.8333H13.3333C13.5694 10.8333 13.7675 10.7533 13.9275 10.5933C14.0875 10.4333 14.1672 10.2356 14.1667 10C14.1661 9.76444 14.0861 9.56667 13.9267 9.40667C13.7672 9.24667 13.5694 9.16667 13.3333 9.16667H10.8333V6.66667C10.8333 6.43056 10.7533 6.23278 10.5933 6.07333C10.4333 5.91389 10.2356 5.83389 10 5.83333C9.76444 5.83278 9.56667 5.91278 9.40667 6.07333C9.24667 6.23389 9.16667 6.43167 9.16667 6.66667V9.16667H6.66667C6.43056 9.16667 6.23278 9.24667 6.07333 9.40667C5.91389 9.56667 5.83389 9.76444 5.83333 10C5.83278 10.2356 5.91278 10.4336 6.07333 10.5942C6.23389 10.7547 6.43167 10.8344 6.66667 10.8333H9.16667ZM4.16667 17.5C3.70833 17.5 3.31611 17.3369 2.99 17.0108C2.66389 16.6847 2.50056 16.2922 2.5 15.8333V4.16667C2.5 3.70833 2.66333 3.31611 2.99 2.99C3.31667 2.66389 3.70889 2.50056 4.16667 2.5H15.8333C16.2917 2.5 16.6842 2.66333 17.0108 2.99C17.3375 3.31667 17.5006 3.70889 17.5 4.16667V15.8333C17.5 16.2917 17.3369 16.6842 17.0108 17.0108C16.6847 17.3375 16.2922 17.5006 15.8333 17.5H4.16667Z" fill="#94A2B3"/>
</svg>
