<svg width="24" height="24" viewBox="0 0 24 24" fill="none" xmlns="http://www.w3.org/2000/svg">
<path d="M11 15V13H13C13.55 13 14.021 12.8043 14.413 12.413C14.805 12.0217 15.0007 11.5507 15 11V9C15 8.45 14.8043 7.97933 14.413 7.588C14.0217 7.19667 13.5507 7.00067 13 7H10C9.71667 7 9.47933 7.096 9.288 7.288C9.09667 7.48 9.00067 7.71733 9 8C8.99933 8.28267 9.09533 8.52033 9.288 8.713C9.48067 8.90567 9.718 9.00133 10 9H13V11H11C10.45 11 9.97933 11.196 9.588 11.588C9.19667 11.98 9.00067 12.4507 9 13V16C9 16.2833 9.096 16.521 9.288 16.713C9.48 16.905 9.71733 17.0007 10 17H14C14.2833 17 14.521 16.904 14.713 16.712C14.905 16.52 15.0007 16.2827 15 16C14.9993 15.7173 14.9033 15.48 14.712 15.288C14.5207 15.096 14.2833 15 14 15H11ZM5 21C4.45 21 3.97933 20.8043 3.588 20.413C3.19667 20.0217 3.00067 19.5507 3 19V5C3 4.45 3.196 3.97933 3.588 3.588C3.98 3.19667 4.45067 3.00067 5 3H19C19.55 3 20.021 3.196 20.413 3.588C20.805 3.98 21.0007 4.45067 21 5V19C21 19.55 20.8043 20.021 20.413 20.413C20.0217 20.805 19.5507 21.0007 19 21H5Z" fill="#DCE5EF"/>
</svg>
