<svg width="24" height="24" viewBox="0 0 24 24" fill="none" xmlns="http://www.w3.org/2000/svg">
<path d="M13 17C13.55 17 14.021 16.8043 14.413 16.413C14.805 16.0217 15.0007 15.5507 15 15V13.5C15 13.0667 14.8583 12.7083 14.575 12.425C14.2917 12.1417 13.9333 12 13.5 12C13.9333 12 14.2917 11.8583 14.575 11.575C14.8583 11.2917 15 10.9333 15 10.5V9C15 8.45 14.8043 7.97933 14.413 7.588C14.0217 7.19667 13.5507 7.00067 13 7H10C9.71667 7 9.47933 7.096 9.288 7.288C9.09667 7.48 9.00067 7.71733 9 8C8.99933 8.28267 9.09533 8.52033 9.288 8.713C9.48067 8.90567 9.718 9.00133 10 9H13V11H12C11.7167 11 11.4793 11.096 11.288 11.288C11.0967 11.48 11.0007 11.7173 11 12C10.9993 12.2827 11.0953 12.5203 11.288 12.713C11.4807 12.9057 11.718 13.0013 12 13H13V15H10C9.71667 15 9.47933 15.096 9.288 15.288C9.09667 15.48 9.00067 15.7173 9 16C8.99933 16.2827 9.09533 16.5203 9.288 16.713C9.48067 16.9057 9.718 17.0013 10 17H13ZM5 21C4.45 21 3.97933 20.8043 3.588 20.413C3.19667 20.0217 3.00067 19.5507 3 19V5C3 4.45 3.196 3.97933 3.588 3.588C3.98 3.19667 4.45067 3.00067 5 3H19C19.55 3 20.021 3.196 20.413 3.588C20.805 3.98 21.0007 4.45067 21 5V19C21 19.55 20.8043 20.021 20.413 20.413C20.0217 20.805 19.5507 21.0007 19 21H5Z" fill="#3483FA"/>
</svg>
