<svg width="21" height="20" viewBox="0 0 21 20" fill="none" xmlns="http://www.w3.org/2000/svg">
<path d="M17.75 13.3334V8.41676L11.0417 12.0626C10.7917 12.2015 10.5278 12.2709 10.25 12.2709C9.97223 12.2709 9.70834 12.2015 9.45834 12.0626L2.41667 8.22926C2.2639 8.14593 2.15612 8.04176 2.09334 7.91676C2.03056 7.79176 1.99945 7.65287 2.00001 7.50009C2.00056 7.34732 2.03195 7.20843 2.09417 7.08343C2.1564 6.95843 2.2639 6.85426 2.41667 6.77093L9.45834 2.93759C9.58334 2.86815 9.71195 2.81593 9.84417 2.78093C9.9764 2.74593 10.1117 2.72871 10.25 2.72926C10.3883 2.72982 10.5239 2.74732 10.6567 2.78176C10.7895 2.81621 10.9178 2.86815 11.0417 2.93759L18.9792 7.27093C19.1181 7.34037 19.2258 7.44121 19.3025 7.57343C19.3792 7.70565 19.4172 7.84787 19.4167 8.00009V13.3334C19.4167 13.5695 19.3367 13.7676 19.1767 13.9276C19.0167 14.0876 18.8189 14.1673 18.5833 14.1668C18.3478 14.1662 18.15 14.0862 17.99 13.9268C17.83 13.7673 17.75 13.5695 17.75 13.3334ZM9.45834 17.0626L5.29167 14.8126C5.0139 14.6598 4.79862 14.4515 4.64584 14.1876C4.49306 13.9237 4.41667 13.639 4.41667 13.3334V10.1668L9.45834 12.8959C9.70834 13.0348 9.97223 13.1043 10.25 13.1043C10.5278 13.1043 10.7917 13.0348 11.0417 12.8959L16.0833 10.1668V13.3334C16.0833 13.639 16.007 13.9237 15.8542 14.1876C15.7014 14.4515 15.4861 14.6598 15.2083 14.8126L11.0417 17.0626C10.9167 17.132 10.7883 17.1843 10.6567 17.2193C10.525 17.2543 10.3895 17.2715 10.25 17.2709C10.1106 17.2704 9.97501 17.2532 9.84334 17.2193C9.71168 17.1854 9.58334 17.1332 9.45834 17.0626Z" fill="#3483FA"/>
</svg>
