<svg width="24" height="24" viewBox="0 0 24 24" fill="none" xmlns="http://www.w3.org/2000/svg">
<path d="M12 9V16C12 16.2833 12.096 16.521 12.288 16.713C12.48 16.905 12.7173 17.0007 13 17C13.2827 16.9993 13.5203 16.9033 13.713 16.712C13.9057 16.5207 14.0013 16.2833 14 16V8C14 7.71667 13.904 7.47933 13.712 7.288C13.52 7.09667 13.2827 7.00067 13 7H11C10.7167 7 10.4793 7.096 10.288 7.288C10.0967 7.48 10.0007 7.71733 10 8C9.99933 8.28267 10.0953 8.52033 10.288 8.713C10.4807 8.90567 10.718 9.00133 11 9H12ZM5 21C4.45 21 3.97933 20.8043 3.588 20.413C3.19667 20.0217 3.00067 19.5507 3 19V5C3 4.45 3.196 3.97933 3.588 3.588C3.98 3.19667 4.45067 3.00067 5 3H19C19.55 3 20.021 3.196 20.413 3.588C20.805 3.98 21.0007 4.45067 21 5V19C21 19.55 20.8043 20.021 20.413 20.413C20.0217 20.805 19.5507 21.0007 19 21H5Z" fill="#3483FA"/>
</svg>
