<svg width="25" height="24" viewBox="0 0 25 24" fill="none" xmlns="http://www.w3.org/2000/svg">
<path d="M21.2496 15.9999V10.0999L13.1996 14.4749C12.8996 14.6416 12.583 14.7249 12.2496 14.7249C11.9163 14.7249 11.5996 14.6416 11.2996 14.4749L2.84962 9.87492C2.66628 9.77492 2.53695 9.64992 2.46162 9.49992C2.38628 9.34992 2.34895 9.18325 2.34962 8.99992C2.35028 8.81659 2.38795 8.64992 2.46262 8.49992C2.53728 8.34992 2.66628 8.22492 2.84962 8.12492L11.2996 3.52492C11.4496 3.44158 11.604 3.37892 11.7626 3.33692C11.9213 3.29492 12.0836 3.27425 12.2496 3.27492C12.4156 3.27558 12.5783 3.29658 12.7376 3.33792C12.897 3.37925 13.051 3.44158 13.1996 3.52492L22.7246 8.72492C22.8913 8.80825 23.0206 8.92925 23.1126 9.08792C23.2046 9.24659 23.2503 9.41725 23.2496 9.59992V15.9999C23.2496 16.2833 23.1536 16.5209 22.9616 16.7129C22.7696 16.9049 22.5323 17.0006 22.2496 16.9999C21.967 16.9993 21.7296 16.9033 21.5376 16.7119C21.3456 16.5206 21.2496 16.2833 21.2496 15.9999ZM11.2996 20.4749L6.29962 17.7749C5.96629 17.5916 5.70795 17.3416 5.52462 17.0249C5.34129 16.7083 5.24962 16.3666 5.24962 15.9999V12.1999L11.2996 15.4749C11.5996 15.6416 11.9163 15.7249 12.2496 15.7249C12.583 15.7249 12.8996 15.6416 13.1996 15.4749L19.2496 12.1999V15.9999C19.2496 16.3666 19.158 16.7083 18.9746 17.0249C18.7913 17.3416 18.533 17.5916 18.1996 17.7749L13.1996 20.4749C13.0496 20.5583 12.8956 20.6209 12.7376 20.6629C12.5796 20.7049 12.417 20.7256 12.2496 20.7249C12.0823 20.7243 11.9196 20.7036 11.7616 20.6629C11.6036 20.6223 11.4496 20.5596 11.2996 20.4749Z" fill="#C8D3DF"/>
</svg>
