<svg width="20" height="20" viewBox="0 0 20 20" fill="none" xmlns="http://www.w3.org/2000/svg">
<path d="M17.2546 6.17158L15.8305 4.76604C15.2972 4.23971 14.4383 4.24569 13.911 4.778L12.0275 6.67997C11.7639 6.94513 11.3345 6.94912 11.0688 6.68595L9.16334 4.80591C8.63005 4.27958 7.77119 4.28556 7.24389 4.81787L2.62613 9.45932C2.09883 9.99163 2.10483 10.8489 2.63812 11.3752L7.41577 16.0883C7.94906 16.6146 8.80792 16.6087 9.33522 16.0763L12.5448 12.8524L17.2666 8.08352C17.7939 7.55121 17.7879 6.69393 17.2546 6.1676V6.17158Z" fill="#AEC9FF"/>
<path d="M14.0563 9.34751L12.6176 7.91129C12.0789 7.37347 11.2113 7.37959 10.6786 7.92351L8.77582 9.86699C8.50947 10.1379 8.07566 10.142 7.80729 9.8731L5.88235 7.95203C5.34361 7.41422 4.47597 7.42033 3.94328 7.96426L2.52076 9.41677C1.98807 9.9607 1.99413 10.8367 2.53287 11.3745L7.35935 16.1904C7.89809 16.7282 8.76573 16.7221 9.29842 16.1782L14.0684 11.3052C14.6011 10.7613 14.595 9.88532 14.0563 9.34751Z" fill="#3483FA"/>
</svg>
