<svg width="24" height="24" viewBox="0 0 24 24" fill="none" xmlns="http://www.w3.org/2000/svg">
<path d="M5 21C4.45 21 3.97933 20.8043 3.588 20.413C3.19667 20.0217 3.00067 19.5507 3 19V5C3 4.45 3.196 3.97933 3.588 3.588C3.98 3.19667 4.45067 3.00067 5 3H19C19.55 3 20.021 3.196 20.413 3.588C20.805 3.98 21.0007 4.45067 21 5V19C21 19.55 20.8043 20.021 20.413 20.413C20.0217 20.805 19.5507 21.0007 19 21H5ZM5 19H19V5H5V19Z" fill="#5D9CFB"/>
<path d="M7 8C7 7.44772 7.44772 7 8 7H16C16.5523 7 17 7.44772 17 8V16C17 16.5523 16.5523 17 16 17H8C7.44772 17 7 16.5523 7 16V8Z" fill="#5D9CFB"/>
</svg>
