<svg width="20" height="20" viewBox="0 0 20 20" fill="none" xmlns="http://www.w3.org/2000/svg">
<path d="M10 1.66699C14.6025 1.66699 18.3334 5.39783 18.3334 10.0003C18.3334 14.6028 14.6025 18.3337 10 18.3337C5.39752 18.3337 1.66669 14.6028 1.66669 10.0003C1.66669 5.39783 5.39752 1.66699 10 1.66699ZM10 12.5003C9.77901 12.5003 9.56705 12.5881 9.41076 12.7444C9.25448 12.9007 9.16669 13.1126 9.16669 13.3337C9.16669 13.5547 9.25448 13.7666 9.41076 13.9229C9.56705 14.0792 9.77901 14.167 10 14.167C10.221 14.167 10.433 14.0792 10.5893 13.9229C10.7456 13.7666 10.8334 13.5547 10.8334 13.3337C10.8334 13.1126 10.7456 12.9007 10.5893 12.7444C10.433 12.5881 10.221 12.5003 10 12.5003ZM10 5.00033C9.79591 5.00035 9.59891 5.07529 9.44638 5.21092C9.29385 5.34655 9.1964 5.53345 9.17252 5.73616L9.16669 5.83366V10.8337C9.16692 11.0461 9.24825 11.2504 9.39406 11.4048C9.53987 11.5592 9.73915 11.6522 9.95118 11.6646C10.1632 11.6771 10.372 11.6081 10.5349 11.4718C10.6978 11.3354 10.8024 11.1421 10.8275 10.9312L10.8334 10.8337V5.83366C10.8334 5.61264 10.7456 5.40068 10.5893 5.2444C10.433 5.08812 10.221 5.00033 10 5.00033Z" fill="white"/>
</svg>
