<svg width="179" height="21" viewBox="0 0 179 21" fill="none" xmlns="http://www.w3.org/2000/svg">
<path d="M7.8598 3.97059H0V0.661765H20.0862V3.97059H12.2264V4.63235C12.2264 5.55882 12.4301 6.36029 12.8377 7.03677C13.2598 7.71324 13.8202 8.27941 14.5188 8.73529C15.232 9.17647 16.0617 9.52206 17.0077 9.77206C17.9684 10.0221 18.9945 10.1838 20.0862 10.2574V13.6765C18.9363 13.6176 17.8447 13.4926 16.8112 13.3015C15.7778 13.1103 14.8245 12.8382 13.9511 12.4853C13.0924 12.1176 12.3282 11.6691 11.6587 11.1397C10.9892 10.5956 10.4506 9.94118 10.0431 9.17647C9.62098 9.94118 9.07516 10.5956 8.40562 11.1397C7.75064 11.6691 6.98649 12.1176 6.11318 12.4853C5.25442 12.8382 4.30834 13.1103 3.27492 13.3015C2.2415 13.4926 1.14986 13.6176 0 13.6765V10.2574C1.09164 10.1838 2.1105 10.0221 3.05659 9.77206C4.01723 9.52206 4.84688 9.17647 5.54553 8.73529C6.25873 8.27941 6.81911 7.71324 7.22665 7.03677C7.64875 6.36029 7.8598 5.55882 7.8598 4.63235V3.97059ZM0 20.7794V17.4706H7.96897V13.0147H12.1172V17.4706H20.0862V20.7794H0Z" fill="#344251"/>
<path d="M23.1349 7.76471H26.9774C28.1564 7.76471 29.0879 7.49265 29.772 6.94853C30.4707 6.38971 30.82 5.64706 30.82 4.72059V3.97059H23.1349V0.661765H34.9682V4.72059C34.9682 6.91176 34.2696 8.52206 32.8723 9.55147C31.4895 10.5662 29.5173 11.0735 26.9556 11.0735H23.1349V7.76471ZM37.3262 15.7059H23.1349V12.3971H41.4744V20.7794H37.3262V15.7059ZM37.3262 0.661765H41.4744V4.125H43.6577V7.65441H41.4744V11.0735H37.3262V0.661765Z" fill="#344251"/>
<path d="M65.9207 0.661765H70.069V20.7794H65.9207V0.661765ZM50.8561 6.02206C50.8561 5.18382 50.9944 4.41912 51.2709 3.72794C51.5475 3.03677 51.9405 2.44853 52.4499 1.96323C52.9739 1.46324 53.6071 1.08088 54.3494 0.816176C55.0917 0.536765 55.9359 0.397059 56.882 0.397059C57.8281 0.397059 58.6723 0.536765 59.4146 0.816176C60.1714 1.08088 60.8119 1.46324 61.3359 1.96323C61.8598 2.44853 62.2601 3.03677 62.5367 3.72794C62.8132 4.41912 62.9515 5.18382 62.9515 6.02206V15.3529C62.9515 16.1912 62.8132 16.9559 62.5367 17.6471C62.2601 18.3382 61.8598 18.9265 61.3359 19.4118C60.8119 19.9118 60.1714 20.2941 59.4146 20.5588C58.6723 20.8382 57.8281 20.9779 56.882 20.9779C55.9359 20.9779 55.0917 20.8382 54.3494 20.5588C53.6071 20.2941 52.9739 19.9118 52.4499 19.4118C51.9405 18.9265 51.5475 18.3382 51.2709 17.6471C50.9944 16.9559 50.8561 16.1912 50.8561 15.3529V6.02206ZM55.0044 15.3529C55.0044 16.0588 55.1572 16.625 55.4628 17.0515C55.7685 17.4632 56.2415 17.6691 56.882 17.6691C57.5224 17.6691 57.9954 17.4632 58.3011 17.0515C58.6068 16.625 58.7596 16.0588 58.7596 15.3529V6.02206C58.7596 5.31618 58.6068 4.75735 58.3011 4.34559C57.9954 3.91912 57.5224 3.70588 56.882 3.70588C56.2415 3.70588 55.7685 3.91912 55.4628 4.34559C55.1572 4.75735 55.0044 5.31618 55.0044 6.02206V15.3529Z" fill="#344251"/>
<path d="M83.8594 8.09559H82.3311V12.1765H76.3926C75.432 12.1765 74.6824 11.9044 74.1438 11.3603C73.6053 10.8162 73.336 10.0588 73.336 9.08823V0.661765H77.0476V3.19853H78.6195V0.661765H82.3311V4.56618H83.8594V0.661765H87.7893V14.3824H83.8594V8.09559ZM93.2038 20.7794H77.2659C76.6691 20.7794 76.1306 20.6838 75.6503 20.4926C75.17 20.3015 74.7551 20.0294 74.4058 19.6765C74.071 19.3382 73.8091 18.9265 73.6198 18.4412C73.4306 17.9559 73.336 17.4118 73.336 16.8088V13.7206H77.4842V16.5882C77.4842 16.8529 77.5643 17.0662 77.7244 17.2279C77.8845 17.3897 78.0956 17.4706 78.3576 17.4706H93.2038V20.7794ZM89.0556 0.661765H92.9855V14.3824H89.0556V0.661765ZM78.6195 6.28676H77.0476V8.31618C77.0476 8.75735 77.2659 8.97794 77.7026 8.97794H78.6195V6.28676Z" fill="#344251"/>
<path d="M115.902 11.25V14.4706H99.7458C99.149 14.4706 98.6105 14.375 98.1302 14.1838C97.6499 13.9926 97.235 13.7279 96.8857 13.3897C96.5509 13.0368 96.2889 12.6176 96.0997 12.1324C95.9105 11.6471 95.8159 11.1029 95.8159 10.5V0.661765H115.902V3.88235H99.9641V6.15441H115.902V8.97794H99.9641V10.3676C99.9641 10.6324 100.044 10.8456 100.204 11.0074C100.364 11.1691 100.575 11.25 100.837 11.25H115.902ZM116.12 17.0294V20.7794H95.5976V17.0294H116.12Z" fill="#344251"/>
<path d="M123.755 16.3676C123.755 14.7647 124.207 13.6324 125.109 12.9706C126.012 12.2941 127.307 11.9559 128.995 11.9559H137.292C138.98 11.9559 140.276 12.2941 141.178 12.9706C142.08 13.6324 142.532 14.7647 142.532 16.3676C142.532 17.9706 142.08 19.1029 141.178 19.7647C140.276 20.4412 138.98 20.7794 137.292 20.7794H128.995C127.307 20.7794 126.012 20.4412 125.109 19.7647C124.207 19.1029 123.755 17.9706 123.755 16.3676ZM144.497 7.43382H142.313V10.6324H127.03C126.07 10.6324 125.32 10.3603 124.782 9.81618C124.243 9.27206 123.974 8.51471 123.974 7.54412V0.661765H135.589V3.97059H128.122V6.66177C128.122 7.10294 128.34 7.32353 128.777 7.32353H138.165V0.661765H142.313V3.90441H144.497V7.43382ZM137.292 17.4706C138.02 17.4706 138.383 17.1029 138.383 16.3676C138.383 15.6324 138.02 15.2647 137.292 15.2647H128.995C128.268 15.2647 127.904 15.6324 127.904 16.3676C127.904 17.1029 128.268 17.4706 128.995 17.4706H137.292Z" fill="#344251"/>
<path d="M161.737 7.74265H158.462V4.85294H155.034C155.121 5.41176 155.274 5.89706 155.492 6.30882C155.725 6.70588 156.009 7.04412 156.344 7.32353C156.693 7.58824 157.086 7.79412 157.523 7.94118C157.96 8.07353 158.418 8.16177 158.898 8.20588V11.7353C157.69 11.6176 156.548 11.2794 155.471 10.7206C154.408 10.1618 153.513 9.36765 152.785 8.33823C152.057 9.36765 151.155 10.1985 150.078 10.8309C149.015 11.4632 147.88 11.8382 146.672 11.9559V8.42647C147.152 8.38235 147.611 8.27941 148.047 8.11765C148.484 7.95588 148.87 7.72794 149.205 7.43382C149.554 7.13971 149.838 6.77941 150.056 6.35294C150.289 5.92647 150.449 5.42647 150.536 4.85294H146.672V1.54412H150.602V0H154.968V1.54412H158.898V4.43382H161.737V0.661765H165.885V11.5147H161.737V7.74265ZM165.885 12.8382V20.7794H149.729C148.768 20.7794 148.018 20.5074 147.48 19.9632C146.941 19.4191 146.672 18.6618 146.672 17.6912V12.8382H165.885ZM150.82 16.8088C150.82 17.25 151.039 17.4706 151.475 17.4706H161.737V16.1471H150.82V16.8088Z" fill="#344251"/>
<path d="M174.175 0.661765H178.76L178.323 14.4926H174.612L174.175 0.661765ZM179 18.4853C179 18.8382 178.934 19.1691 178.803 19.4779C178.673 19.7868 178.491 20.0515 178.258 20.2721C178.039 20.4926 177.777 20.6691 177.472 20.8015C177.166 20.9338 176.839 21 176.489 21C176.14 21 175.812 20.9338 175.507 20.8015C175.216 20.6691 174.961 20.4926 174.743 20.2721C174.524 20.0515 174.35 19.7868 174.219 19.4779C174.088 19.1691 174.022 18.8382 174.022 18.4853C174.022 18.1324 174.088 17.8015 174.219 17.4926C174.35 17.1838 174.524 16.9191 174.743 16.6985C174.961 16.4632 175.216 16.2794 175.507 16.1471C175.812 16.0147 176.14 15.9485 176.489 15.9485C176.839 15.9485 177.166 16.0147 177.472 16.1471C177.777 16.2794 178.039 16.4632 178.258 16.6985C178.491 16.9191 178.673 17.1838 178.803 17.4926C178.934 17.8015 179 18.1324 179 18.4853Z" fill="#344251"/>
</svg>
