<svg width="16" height="14" viewBox="0 0 16 14" fill="none" xmlns="http://www.w3.org/2000/svg">
<path d="M7.30039 10.0333L11.0671 6.26665L10.1171 5.31665L7.30039 8.13332L5.88372 6.71665L4.93372 7.66665L7.30039 10.0333ZM8.00039 13.6666C7.16706 13.6666 6.38661 13.5084 5.65906 13.192C4.9315 12.8755 4.29817 12.4478 3.75906 11.9087C3.21995 11.3695 2.79217 10.7362 2.47572 10.0086C2.15928 9.28109 2.00084 8.50043 2.00039 7.66665C1.99995 6.83287 2.15839 6.05243 2.47572 5.32532C2.79306 4.59821 3.22061 3.96487 3.75839 3.42532C4.29617 2.88576 4.9295 2.45798 5.65839 2.14198C6.38728 1.82598 7.16795 1.66754 8.00039 1.66665C8.83284 1.66576 9.6135 1.82421 10.3424 2.14198C11.0713 2.45976 11.7046 2.88754 12.2424 3.42532C12.7802 3.96309 13.2079 4.59643 13.5257 5.32532C13.8435 6.05421 14.0017 6.83465 14.0004 7.66665C13.9991 8.49865 13.8408 9.27932 13.5257 10.0086C13.2106 10.738 12.7828 11.3713 12.2424 11.9087C11.7019 12.446 11.0686 12.8738 10.3424 13.192C9.61617 13.5102 8.8355 13.6684 8.00039 13.6666ZM3.73372 0.56665L4.66706 1.49998L1.83372 4.33332L0.900391 3.39998L3.73372 0.56665ZM12.2671 0.56665L15.1004 3.39998L14.1671 4.33332L11.3337 1.49998L12.2671 0.56665Z" fill="white"/>
</svg>
